<mxfile host="app.diagrams.net" modified="2023-10-12T18:04:27.002Z" agent="Mozilla/5.0 (Windows NT 10.0; Win64; x64) AppleWebKit/537.36 (KHTML, like Gecko) Chrome/116.0.0.0 Safari/537.36 OPR/102.0.0.0" etag="vlu9EGjjmQr9YHNtPm24" version="22.0.4" type="device">
  <diagram name="PÃ¡gina-1" id="g3IMpFZ8Oyx4sy7s6TkJ">
    <mxGraphModel dx="1551" dy="1568" grid="1" gridSize="10" guides="1" tooltips="1" connect="1" arrows="1" fold="1" page="1" pageScale="1" pageWidth="827" pageHeight="1169" math="0" shadow="0">
      <root>
        <mxCell id="0" />
        <mxCell id="1" parent="0" />
        <mxCell id="CpcycJVbjW2LDVy4HhYS-16" style="edgeStyle=orthogonalEdgeStyle;rounded=0;orthogonalLoop=1;jettySize=auto;html=1;entryX=0.5;entryY=0;entryDx=0;entryDy=0;endArrow=none;endFill=0;" parent="1" source="CpcycJVbjW2LDVy4HhYS-2" target="CpcycJVbjW2LDVy4HhYS-15" edge="1">
          <mxGeometry relative="1" as="geometry" />
        </mxCell>
        <mxCell id="CpcycJVbjW2LDVy4HhYS-2" value="Agencia" style="rounded=0;whiteSpace=wrap;html=1;" parent="1" vertex="1">
          <mxGeometry x="530" y="150" width="120" height="60" as="geometry" />
        </mxCell>
        <mxCell id="CpcycJVbjW2LDVy4HhYS-11" style="edgeStyle=orthogonalEdgeStyle;rounded=0;orthogonalLoop=1;jettySize=auto;html=1;exitX=1;exitY=0.5;exitDx=0;exitDy=0;entryX=0;entryY=0.5;entryDx=0;entryDy=0;endArrow=none;endFill=0;" parent="1" source="CpcycJVbjW2LDVy4HhYS-3" target="CpcycJVbjW2LDVy4HhYS-10" edge="1">
          <mxGeometry relative="1" as="geometry" />
        </mxCell>
        <mxCell id="JyWuDK0ZB9Rh1Qg9aJKR-30" style="edgeStyle=orthogonalEdgeStyle;rounded=0;orthogonalLoop=1;jettySize=auto;html=1;entryX=0.5;entryY=0;entryDx=0;entryDy=0;endArrow=none;endFill=0;" parent="1" source="CpcycJVbjW2LDVy4HhYS-3" target="JyWuDK0ZB9Rh1Qg9aJKR-10" edge="1">
          <mxGeometry relative="1" as="geometry" />
        </mxCell>
        <mxCell id="CpcycJVbjW2LDVy4HhYS-3" value="Vendedor" style="rounded=0;whiteSpace=wrap;html=1;" parent="1" vertex="1">
          <mxGeometry x="110" y="150" width="120" height="60" as="geometry" />
        </mxCell>
        <mxCell id="CpcycJVbjW2LDVy4HhYS-5" value="Inmueble" style="rounded=0;whiteSpace=wrap;html=1;" parent="1" vertex="1">
          <mxGeometry x="480" y="600" width="120" height="60" as="geometry" />
        </mxCell>
        <mxCell id="8WXVSk50cckGpyD9SSUx-31" style="edgeStyle=orthogonalEdgeStyle;rounded=0;orthogonalLoop=1;jettySize=auto;html=1;entryX=0;entryY=0.5;entryDx=0;entryDy=0;endArrow=none;endFill=0;" parent="1" source="CpcycJVbjW2LDVy4HhYS-6" target="8WXVSk50cckGpyD9SSUx-29" edge="1">
          <mxGeometry relative="1" as="geometry" />
        </mxCell>
        <mxCell id="CpcycJVbjW2LDVy4HhYS-6" value="Propietario" style="rounded=0;whiteSpace=wrap;html=1;" parent="1" vertex="1">
          <mxGeometry x="90" y="600" width="120" height="60" as="geometry" />
        </mxCell>
        <mxCell id="JyWuDK0ZB9Rh1Qg9aJKR-33" style="edgeStyle=orthogonalEdgeStyle;rounded=0;orthogonalLoop=1;jettySize=auto;html=1;entryX=1;entryY=0.25;entryDx=0;entryDy=0;endArrow=none;endFill=0;exitX=1;exitY=0.5;exitDx=0;exitDy=0;" parent="1" source="CpcycJVbjW2LDVy4HhYS-7" target="CpcycJVbjW2LDVy4HhYS-3" edge="1">
          <mxGeometry relative="1" as="geometry">
            <Array as="points">
              <mxPoint x="210" y="80" />
              <mxPoint x="310" y="80" />
              <mxPoint x="310" y="165" />
            </Array>
          </mxGeometry>
        </mxCell>
        <mxCell id="JyWuDK0ZB9Rh1Qg9aJKR-34" style="edgeStyle=orthogonalEdgeStyle;rounded=0;orthogonalLoop=1;jettySize=auto;html=1;entryX=0;entryY=0.25;entryDx=0;entryDy=0;endArrow=none;endFill=0;exitX=0;exitY=0.5;exitDx=0;exitDy=0;" parent="1" source="CpcycJVbjW2LDVy4HhYS-7" target="CpcycJVbjW2LDVy4HhYS-3" edge="1">
          <mxGeometry relative="1" as="geometry">
            <Array as="points">
              <mxPoint x="20" y="80" />
              <mxPoint x="20" y="165" />
            </Array>
          </mxGeometry>
        </mxCell>
        <mxCell id="CpcycJVbjW2LDVy4HhYS-7" value="Supervisa" style="rhombus;whiteSpace=wrap;html=1;" parent="1" vertex="1">
          <mxGeometry x="130" y="18" width="80" height="80" as="geometry" />
        </mxCell>
        <mxCell id="CpcycJVbjW2LDVy4HhYS-12" style="edgeStyle=orthogonalEdgeStyle;rounded=0;orthogonalLoop=1;jettySize=auto;html=1;entryX=0;entryY=0.5;entryDx=0;entryDy=0;endArrow=none;endFill=0;" parent="1" source="CpcycJVbjW2LDVy4HhYS-10" target="CpcycJVbjW2LDVy4HhYS-2" edge="1">
          <mxGeometry relative="1" as="geometry" />
        </mxCell>
        <mxCell id="CpcycJVbjW2LDVy4HhYS-10" value="Pertenece" style="rhombus;whiteSpace=wrap;html=1;" parent="1" vertex="1">
          <mxGeometry x="334" y="140" width="80" height="80" as="geometry" />
        </mxCell>
        <mxCell id="CpcycJVbjW2LDVy4HhYS-18" style="edgeStyle=orthogonalEdgeStyle;rounded=0;orthogonalLoop=1;jettySize=auto;html=1;entryX=1;entryY=0.5;entryDx=0;entryDy=0;endArrow=none;endFill=0;exitX=0.5;exitY=1;exitDx=0;exitDy=0;" parent="1" source="CpcycJVbjW2LDVy4HhYS-15" target="CpcycJVbjW2LDVy4HhYS-5" edge="1">
          <mxGeometry relative="1" as="geometry">
            <mxPoint x="590" y="435" as="sourcePoint" />
          </mxGeometry>
        </mxCell>
        <mxCell id="CpcycJVbjW2LDVy4HhYS-15" value="Ofrece" style="rhombus;whiteSpace=wrap;html=1;" parent="1" vertex="1">
          <mxGeometry x="680" y="370" width="80" height="80" as="geometry" />
        </mxCell>
        <mxCell id="8WXVSk50cckGpyD9SSUx-68" style="edgeStyle=orthogonalEdgeStyle;rounded=0;orthogonalLoop=1;jettySize=auto;html=1;entryX=0.5;entryY=0;entryDx=0;entryDy=0;endArrow=none;endFill=0;" parent="1" source="CpcycJVbjW2LDVy4HhYS-19" target="8WXVSk50cckGpyD9SSUx-66" edge="1">
          <mxGeometry relative="1" as="geometry">
            <Array as="points">
              <mxPoint x="450" y="720" />
            </Array>
          </mxGeometry>
        </mxCell>
        <mxCell id="8WXVSk50cckGpyD9SSUx-69" style="edgeStyle=orthogonalEdgeStyle;rounded=0;orthogonalLoop=1;jettySize=auto;html=1;exitX=0.5;exitY=0;exitDx=0;exitDy=0;entryX=0.5;entryY=0;entryDx=0;entryDy=0;endArrow=none;endFill=0;" parent="1" source="CpcycJVbjW2LDVy4HhYS-19" target="8WXVSk50cckGpyD9SSUx-67" edge="1">
          <mxGeometry relative="1" as="geometry">
            <Array as="points">
              <mxPoint x="630" y="720" />
            </Array>
          </mxGeometry>
        </mxCell>
        <mxCell id="CpcycJVbjW2LDVy4HhYS-19" value="Es" style="triangle;whiteSpace=wrap;html=1;rotation=90;" parent="1" vertex="1">
          <mxGeometry x="510" y="680" width="60" height="80" as="geometry" />
        </mxCell>
        <mxCell id="JyWuDK0ZB9Rh1Qg9aJKR-5" value="" style="endArrow=none;html=1;rounded=0;edgeStyle=orthogonalEdgeStyle;curved=1;" parent="1" edge="1">
          <mxGeometry width="50" height="50" relative="1" as="geometry">
            <mxPoint x="-320" y="560" as="sourcePoint" />
            <mxPoint x="-320" y="440" as="targetPoint" />
            <Array as="points">
              <mxPoint x="-290" y="560" />
              <mxPoint x="-290" y="440" />
            </Array>
          </mxGeometry>
        </mxCell>
        <mxCell id="JyWuDK0ZB9Rh1Qg9aJKR-17" style="edgeStyle=orthogonalEdgeStyle;rounded=0;orthogonalLoop=1;jettySize=auto;html=1;exitX=0.25;exitY=1;exitDx=0;exitDy=0;entryX=0.5;entryY=0;entryDx=0;entryDy=0;endArrow=none;endFill=0;" parent="1" target="JyWuDK0ZB9Rh1Qg9aJKR-15" edge="1">
          <mxGeometry relative="1" as="geometry">
            <mxPoint x="344" y="360" as="sourcePoint" />
            <mxPoint x="344" y="420" as="targetPoint" />
            <Array as="points" />
          </mxGeometry>
        </mxCell>
        <mxCell id="JyWuDK0ZB9Rh1Qg9aJKR-38" style="edgeStyle=orthogonalEdgeStyle;rounded=0;orthogonalLoop=1;jettySize=auto;html=1;entryX=0.5;entryY=0;entryDx=0;entryDy=0;endArrow=none;endFill=0;" parent="1" source="JyWuDK0ZB9Rh1Qg9aJKR-9" target="JyWuDK0ZB9Rh1Qg9aJKR-37" edge="1">
          <mxGeometry relative="1" as="geometry">
            <Array as="points">
              <mxPoint x="374" y="390" />
              <mxPoint x="540" y="390" />
              <mxPoint x="540" y="420" />
            </Array>
          </mxGeometry>
        </mxCell>
        <mxCell id="JyWuDK0ZB9Rh1Qg9aJKR-43" style="edgeStyle=orthogonalEdgeStyle;rounded=0;orthogonalLoop=1;jettySize=auto;html=1;entryX=0;entryY=0.5;entryDx=0;entryDy=0;endArrow=none;endFill=0;" parent="1" source="JyWuDK0ZB9Rh1Qg9aJKR-9" target="JyWuDK0ZB9Rh1Qg9aJKR-12" edge="1">
          <mxGeometry relative="1" as="geometry" />
        </mxCell>
        <mxCell id="JyWuDK0ZB9Rh1Qg9aJKR-9" value="Cliente" style="rounded=0;whiteSpace=wrap;html=1;" parent="1" vertex="1">
          <mxGeometry x="314" y="300" width="120" height="60" as="geometry" />
        </mxCell>
        <mxCell id="JyWuDK0ZB9Rh1Qg9aJKR-31" style="edgeStyle=orthogonalEdgeStyle;rounded=0;orthogonalLoop=1;jettySize=auto;html=1;exitX=1;exitY=0.5;exitDx=0;exitDy=0;entryX=0;entryY=0.5;entryDx=0;entryDy=0;endArrow=none;endFill=0;" parent="1" source="JyWuDK0ZB9Rh1Qg9aJKR-10" target="JyWuDK0ZB9Rh1Qg9aJKR-9" edge="1">
          <mxGeometry relative="1" as="geometry" />
        </mxCell>
        <mxCell id="JyWuDK0ZB9Rh1Qg9aJKR-52" style="rounded=0;orthogonalLoop=1;jettySize=auto;html=1;exitX=0;exitY=0.5;exitDx=0;exitDy=0;entryX=1;entryY=0.5;entryDx=0;entryDy=0;endArrow=none;endFill=0;" parent="1" source="JyWuDK0ZB9Rh1Qg9aJKR-10" target="JyWuDK0ZB9Rh1Qg9aJKR-50" edge="1">
          <mxGeometry relative="1" as="geometry" />
        </mxCell>
        <mxCell id="JyWuDK0ZB9Rh1Qg9aJKR-10" value="Atiende" style="rhombus;whiteSpace=wrap;html=1;" parent="1" vertex="1">
          <mxGeometry x="130" y="290" width="80" height="80" as="geometry" />
        </mxCell>
        <mxCell id="JyWuDK0ZB9Rh1Qg9aJKR-44" style="edgeStyle=orthogonalEdgeStyle;rounded=0;orthogonalLoop=1;jettySize=auto;html=1;entryX=0.5;entryY=1;entryDx=0;entryDy=0;endArrow=none;endFill=0;" parent="1" source="JyWuDK0ZB9Rh1Qg9aJKR-12" target="CpcycJVbjW2LDVy4HhYS-2" edge="1">
          <mxGeometry relative="1" as="geometry" />
        </mxCell>
        <mxCell id="JyWuDK0ZB9Rh1Qg9aJKR-12" value="Visita" style="rhombus;whiteSpace=wrap;html=1;" parent="1" vertex="1">
          <mxGeometry x="550" y="290" width="80" height="80" as="geometry" />
        </mxCell>
        <mxCell id="JyWuDK0ZB9Rh1Qg9aJKR-15" value="ID&lt;hr&gt;Hace" style="rhombus;whiteSpace=wrap;html=1;" parent="1" vertex="1">
          <mxGeometry x="304" y="420" width="80" height="80" as="geometry" />
        </mxCell>
        <mxCell id="JyWuDK0ZB9Rh1Qg9aJKR-35" style="edgeStyle=orthogonalEdgeStyle;rounded=0;orthogonalLoop=1;jettySize=auto;html=1;exitX=0.5;exitY=0;exitDx=0;exitDy=0;entryX=0.5;entryY=1;entryDx=0;entryDy=0;endArrow=none;endFill=0;" parent="1" target="JyWuDK0ZB9Rh1Qg9aJKR-15" edge="1">
          <mxGeometry relative="1" as="geometry">
            <mxPoint x="344" y="510" as="sourcePoint" />
          </mxGeometry>
        </mxCell>
        <mxCell id="JyWuDK0ZB9Rh1Qg9aJKR-32" value="" style="endArrow=classic;html=1;rounded=0;edgeStyle=orthogonalEdgeStyle;curved=1;" parent="1" edge="1">
          <mxGeometry width="50" height="50" relative="1" as="geometry">
            <mxPoint x="244" y="330" as="sourcePoint" />
            <mxPoint x="344" y="390" as="targetPoint" />
            <Array as="points">
              <mxPoint x="244" y="390" />
            </Array>
          </mxGeometry>
        </mxCell>
        <mxCell id="JyWuDK0ZB9Rh1Qg9aJKR-39" style="edgeStyle=orthogonalEdgeStyle;rounded=0;orthogonalLoop=1;jettySize=auto;html=1;entryX=0.75;entryY=0;entryDx=0;entryDy=0;endArrow=none;endFill=0;" parent="1" source="JyWuDK0ZB9Rh1Qg9aJKR-37" target="CpcycJVbjW2LDVy4HhYS-5" edge="1">
          <mxGeometry relative="1" as="geometry">
            <Array as="points">
              <mxPoint x="540" y="600" />
            </Array>
          </mxGeometry>
        </mxCell>
        <mxCell id="JyWuDK0ZB9Rh1Qg9aJKR-37" value="Reserva" style="rhombus;whiteSpace=wrap;html=1;" parent="1" vertex="1">
          <mxGeometry x="500" y="420" width="80" height="80" as="geometry" />
        </mxCell>
        <mxCell id="JyWuDK0ZB9Rh1Qg9aJKR-40" value="" style="endArrow=classic;html=1;rounded=0;edgeStyle=orthogonalEdgeStyle;curved=1;" parent="1" edge="1">
          <mxGeometry width="50" height="50" relative="1" as="geometry">
            <mxPoint x="345" y="399" as="sourcePoint" />
            <mxPoint x="495" y="389" as="targetPoint" />
            <Array as="points">
              <mxPoint x="345" y="420" />
              <mxPoint x="495" y="420" />
            </Array>
          </mxGeometry>
        </mxCell>
        <mxCell id="JyWuDK0ZB9Rh1Qg9aJKR-41" value="" style="rounded=0;whiteSpace=wrap;html=1;" parent="1" vertex="1">
          <mxGeometry x="284" y="510" width="120" height="60" as="geometry" />
        </mxCell>
        <mxCell id="JyWuDK0ZB9Rh1Qg9aJKR-42" value="Transferencia" style="rounded=0;whiteSpace=wrap;html=1;" parent="1" vertex="1">
          <mxGeometry x="294" y="515" width="100" height="50" as="geometry" />
        </mxCell>
        <mxCell id="JyWuDK0ZB9Rh1Qg9aJKR-47" style="edgeStyle=orthogonalEdgeStyle;rounded=0;orthogonalLoop=1;jettySize=auto;html=1;exitX=1;exitY=0.5;exitDx=0;exitDy=0;entryX=0;entryY=0.5;entryDx=0;entryDy=0;endArrow=none;endFill=0;" parent="1" source="JyWuDK0ZB9Rh1Qg9aJKR-46" target="JyWuDK0ZB9Rh1Qg9aJKR-41" edge="1">
          <mxGeometry relative="1" as="geometry" />
        </mxCell>
        <mxCell id="JyWuDK0ZB9Rh1Qg9aJKR-46" value="&lt;u&gt;cÃ³digo&lt;/u&gt;" style="ellipse;whiteSpace=wrap;html=1;" parent="1" vertex="1">
          <mxGeometry x="198" y="520" width="70" height="40" as="geometry" />
        </mxCell>
        <mxCell id="JyWuDK0ZB9Rh1Qg9aJKR-50" value="comentario" style="ellipse;whiteSpace=wrap;html=1;" parent="1" vertex="1">
          <mxGeometry x="40" y="310" width="70" height="40" as="geometry" />
        </mxCell>
        <mxCell id="8WXVSk50cckGpyD9SSUx-3" value="(1,1)" style="text;html=1;align=center;verticalAlign=middle;resizable=0;points=[];autosize=1;strokeColor=none;fillColor=none;" parent="1" vertex="1">
          <mxGeometry x="643" y="138" width="50" height="30" as="geometry" />
        </mxCell>
        <mxCell id="8WXVSk50cckGpyD9SSUx-6" value="(1,1)" style="text;html=1;align=center;verticalAlign=middle;resizable=0;points=[];autosize=1;strokeColor=none;fillColor=none;" parent="1" vertex="1">
          <mxGeometry x="485" y="148" width="50" height="30" as="geometry" />
        </mxCell>
        <mxCell id="8WXVSk50cckGpyD9SSUx-7" value="1:N" style="text;html=1;align=center;verticalAlign=middle;resizable=0;points=[];autosize=1;strokeColor=none;fillColor=none;" parent="1" vertex="1">
          <mxGeometry x="351" y="108" width="40" height="30" as="geometry" />
        </mxCell>
        <mxCell id="8WXVSk50cckGpyD9SSUx-9" value="(0,N)" style="text;html=1;align=center;verticalAlign=middle;resizable=0;points=[];autosize=1;strokeColor=none;fillColor=none;" parent="1" vertex="1">
          <mxGeometry x="425" y="304" width="50" height="30" as="geometry" />
        </mxCell>
        <mxCell id="8WXVSk50cckGpyD9SSUx-10" value="(1,N)" style="text;html=1;align=center;verticalAlign=middle;resizable=0;points=[];autosize=1;strokeColor=none;fillColor=none;" parent="1" vertex="1">
          <mxGeometry x="548" y="208" width="50" height="30" as="geometry" />
        </mxCell>
        <mxCell id="8WXVSk50cckGpyD9SSUx-11" value="N:M" style="text;html=1;align=center;verticalAlign=middle;resizable=0;points=[];autosize=1;strokeColor=none;fillColor=none;" parent="1" vertex="1">
          <mxGeometry x="565" y="368" width="50" height="30" as="geometry" />
        </mxCell>
        <mxCell id="8WXVSk50cckGpyD9SSUx-12" value="(1,1)" style="text;html=1;align=center;verticalAlign=middle;resizable=0;points=[];autosize=1;strokeColor=none;fillColor=none;" parent="1" vertex="1">
          <mxGeometry x="160" y="207" width="50" height="30" as="geometry" />
        </mxCell>
        <mxCell id="8WXVSk50cckGpyD9SSUx-13" value="(0,N)" style="text;html=1;align=center;verticalAlign=middle;resizable=0;points=[];autosize=1;strokeColor=none;fillColor=none;" parent="1" vertex="1">
          <mxGeometry x="272" y="303" width="50" height="30" as="geometry" />
        </mxCell>
        <mxCell id="8WXVSk50cckGpyD9SSUx-14" value="1:N" style="text;html=1;align=center;verticalAlign=middle;resizable=0;points=[];autosize=1;strokeColor=none;fillColor=none;" parent="1" vertex="1">
          <mxGeometry x="150" y="368" width="40" height="30" as="geometry" />
        </mxCell>
        <mxCell id="8WXVSk50cckGpyD9SSUx-15" value="(0,N)" style="text;html=1;align=center;verticalAlign=middle;resizable=0;points=[];autosize=1;strokeColor=none;fillColor=none;" parent="1" vertex="1">
          <mxGeometry x="337" y="486" width="50" height="30" as="geometry" />
        </mxCell>
        <mxCell id="8WXVSk50cckGpyD9SSUx-16" value="(1,1)" style="text;html=1;align=center;verticalAlign=middle;resizable=0;points=[];autosize=1;strokeColor=none;fillColor=none;" parent="1" vertex="1">
          <mxGeometry x="305" y="354" width="50" height="30" as="geometry" />
        </mxCell>
        <mxCell id="8WXVSk50cckGpyD9SSUx-17" value="1:N" style="text;html=1;align=center;verticalAlign=middle;resizable=0;points=[];autosize=1;strokeColor=none;fillColor=none;" parent="1" vertex="1">
          <mxGeometry x="382" y="445" width="40" height="30" as="geometry" />
        </mxCell>
        <mxCell id="8WXVSk50cckGpyD9SSUx-19" style="rounded=0;orthogonalLoop=1;jettySize=auto;html=1;entryX=0;entryY=0.5;entryDx=0;entryDy=0;endArrow=none;endFill=0;" parent="1" source="8WXVSk50cckGpyD9SSUx-18" target="JyWuDK0ZB9Rh1Qg9aJKR-15" edge="1">
          <mxGeometry relative="1" as="geometry" />
        </mxCell>
        <mxCell id="8WXVSk50cckGpyD9SSUx-18" value="fecha&lt;br&gt;realizaciÃ³n" style="ellipse;whiteSpace=wrap;html=1;" parent="1" vertex="1">
          <mxGeometry x="198" y="440" width="70" height="40" as="geometry" />
        </mxCell>
        <mxCell id="8WXVSk50cckGpyD9SSUx-20" value="(0,1)" style="text;html=1;align=center;verticalAlign=middle;resizable=0;points=[];autosize=1;strokeColor=none;fillColor=none;" parent="1" vertex="1">
          <mxGeometry x="365" y="353" width="50" height="30" as="geometry" />
        </mxCell>
        <mxCell id="8WXVSk50cckGpyD9SSUx-21" value="(0,N)" style="text;html=1;align=center;verticalAlign=middle;resizable=0;points=[];autosize=1;strokeColor=none;fillColor=none;" parent="1" vertex="1">
          <mxGeometry x="535" y="575" width="50" height="30" as="geometry" />
        </mxCell>
        <mxCell id="8WXVSk50cckGpyD9SSUx-22" value="1:N" style="text;html=1;align=center;verticalAlign=middle;resizable=0;points=[];autosize=1;strokeColor=none;fillColor=none;" parent="1" vertex="1">
          <mxGeometry x="580" y="445" width="40" height="30" as="geometry" />
        </mxCell>
        <mxCell id="8WXVSk50cckGpyD9SSUx-23" value="(1,1)" style="text;html=1;align=center;verticalAlign=middle;resizable=0;points=[];autosize=1;strokeColor=none;fillColor=none;" parent="1" vertex="1">
          <mxGeometry x="639" y="177" width="50" height="30" as="geometry" />
        </mxCell>
        <mxCell id="8WXVSk50cckGpyD9SSUx-24" value="(1,N)" style="text;html=1;align=center;verticalAlign=middle;resizable=0;points=[];autosize=1;strokeColor=none;fillColor=none;" parent="1" vertex="1">
          <mxGeometry x="593" y="600" width="50" height="30" as="geometry" />
        </mxCell>
        <mxCell id="8WXVSk50cckGpyD9SSUx-25" value="1:N" style="text;html=1;align=center;verticalAlign=middle;resizable=0;points=[];autosize=1;strokeColor=none;fillColor=none;" parent="1" vertex="1">
          <mxGeometry x="755" y="395" width="40" height="30" as="geometry" />
        </mxCell>
        <mxCell id="8WXVSk50cckGpyD9SSUx-32" style="edgeStyle=orthogonalEdgeStyle;rounded=0;orthogonalLoop=1;jettySize=auto;html=1;entryX=0;entryY=0.5;entryDx=0;entryDy=0;endArrow=none;endFill=0;" parent="1" source="8WXVSk50cckGpyD9SSUx-29" target="CpcycJVbjW2LDVy4HhYS-5" edge="1">
          <mxGeometry relative="1" as="geometry" />
        </mxCell>
        <mxCell id="8WXVSk50cckGpyD9SSUx-29" value="Anuncia" style="rhombus;whiteSpace=wrap;html=1;" parent="1" vertex="1">
          <mxGeometry x="304" y="590" width="80" height="80" as="geometry" />
        </mxCell>
        <mxCell id="8WXVSk50cckGpyD9SSUx-33" value="(1,1)" style="text;html=1;align=center;verticalAlign=middle;resizable=0;points=[];autosize=1;strokeColor=none;fillColor=none;" parent="1" vertex="1">
          <mxGeometry x="201" y="605" width="50" height="30" as="geometry" />
        </mxCell>
        <mxCell id="8WXVSk50cckGpyD9SSUx-34" value="(1,N)" style="text;html=1;align=center;verticalAlign=middle;resizable=0;points=[];autosize=1;strokeColor=none;fillColor=none;" parent="1" vertex="1">
          <mxGeometry x="437" y="604" width="50" height="30" as="geometry" />
        </mxCell>
        <mxCell id="8WXVSk50cckGpyD9SSUx-37" value="1:N" style="text;html=1;align=center;verticalAlign=middle;resizable=0;points=[];autosize=1;strokeColor=none;fillColor=none;" parent="1" vertex="1">
          <mxGeometry x="324" y="666" width="40" height="30" as="geometry" />
        </mxCell>
        <mxCell id="8WXVSk50cckGpyD9SSUx-38" value="tÃ­tulo" style="ellipse;whiteSpace=wrap;html=1;" parent="1" vertex="1">
          <mxGeometry x="230" y="98" width="60" height="40" as="geometry" />
        </mxCell>
        <mxCell id="8WXVSk50cckGpyD9SSUx-39" value="apellidos" style="ellipse;whiteSpace=wrap;html=1;" parent="1" vertex="1">
          <mxGeometry x="170" y="98" width="60" height="40" as="geometry" />
        </mxCell>
        <mxCell id="8WXVSk50cckGpyD9SSUx-41" value="&lt;u&gt;DNI&lt;/u&gt;" style="ellipse;whiteSpace=wrap;html=1;" parent="1" vertex="1">
          <mxGeometry x="50" y="98" width="60" height="40" as="geometry" />
        </mxCell>
        <mxCell id="8WXVSk50cckGpyD9SSUx-42" value="nombre" style="ellipse;whiteSpace=wrap;html=1;" parent="1" vertex="1">
          <mxGeometry x="110" y="98" width="60" height="40" as="geometry" />
        </mxCell>
        <mxCell id="8WXVSk50cckGpyD9SSUx-46" value="" style="endArrow=none;html=1;rounded=0;entryX=0.5;entryY=1;entryDx=0;entryDy=0;exitX=0;exitY=0;exitDx=0;exitDy=0;" parent="1" source="CpcycJVbjW2LDVy4HhYS-3" target="8WXVSk50cckGpyD9SSUx-41" edge="1">
          <mxGeometry width="50" height="50" relative="1" as="geometry">
            <mxPoint x="420" y="410" as="sourcePoint" />
            <mxPoint x="470" y="360" as="targetPoint" />
          </mxGeometry>
        </mxCell>
        <mxCell id="8WXVSk50cckGpyD9SSUx-47" value="" style="endArrow=none;html=1;rounded=0;entryX=0.5;entryY=1;entryDx=0;entryDy=0;exitX=0.25;exitY=0;exitDx=0;exitDy=0;" parent="1" source="CpcycJVbjW2LDVy4HhYS-3" target="8WXVSk50cckGpyD9SSUx-42" edge="1">
          <mxGeometry width="50" height="50" relative="1" as="geometry">
            <mxPoint x="420" y="410" as="sourcePoint" />
            <mxPoint x="470" y="360" as="targetPoint" />
          </mxGeometry>
        </mxCell>
        <mxCell id="8WXVSk50cckGpyD9SSUx-48" value="" style="endArrow=none;html=1;rounded=0;entryX=0.5;entryY=1;entryDx=0;entryDy=0;exitX=0.75;exitY=0;exitDx=0;exitDy=0;" parent="1" source="CpcycJVbjW2LDVy4HhYS-3" target="8WXVSk50cckGpyD9SSUx-39" edge="1">
          <mxGeometry width="50" height="50" relative="1" as="geometry">
            <mxPoint x="420" y="410" as="sourcePoint" />
            <mxPoint x="470" y="360" as="targetPoint" />
          </mxGeometry>
        </mxCell>
        <mxCell id="8WXVSk50cckGpyD9SSUx-49" value="" style="endArrow=none;html=1;rounded=0;entryX=0.5;entryY=1;entryDx=0;entryDy=0;exitX=1;exitY=0;exitDx=0;exitDy=0;" parent="1" source="CpcycJVbjW2LDVy4HhYS-3" target="8WXVSk50cckGpyD9SSUx-38" edge="1">
          <mxGeometry width="50" height="50" relative="1" as="geometry">
            <mxPoint x="420" y="410" as="sourcePoint" />
            <mxPoint x="470" y="360" as="targetPoint" />
          </mxGeometry>
        </mxCell>
        <mxCell id="8WXVSk50cckGpyD9SSUx-50" value="email(?)" style="ellipse;whiteSpace=wrap;html=1;" parent="1" vertex="1">
          <mxGeometry x="650" y="98" width="60" height="40" as="geometry" />
        </mxCell>
        <mxCell id="8WXVSk50cckGpyD9SSUx-51" value="telÃ©fono" style="ellipse;whiteSpace=wrap;html=1;" parent="1" vertex="1">
          <mxGeometry x="590" y="98" width="60" height="40" as="geometry" />
        </mxCell>
        <mxCell id="8WXVSk50cckGpyD9SSUx-52" value="&lt;u&gt;direcciÃ³n&lt;/u&gt;" style="ellipse;whiteSpace=wrap;html=1;" parent="1" vertex="1">
          <mxGeometry x="470" y="98" width="60" height="40" as="geometry" />
        </mxCell>
        <mxCell id="8WXVSk50cckGpyD9SSUx-53" value="Ã¡mbito" style="ellipse;whiteSpace=wrap;html=1;" parent="1" vertex="1">
          <mxGeometry x="530" y="98" width="60" height="40" as="geometry" />
        </mxCell>
        <mxCell id="8WXVSk50cckGpyD9SSUx-54" value="" style="endArrow=none;html=1;rounded=0;entryX=0.5;entryY=1;entryDx=0;entryDy=0;exitX=0;exitY=0;exitDx=0;exitDy=0;" parent="1" target="8WXVSk50cckGpyD9SSUx-52" edge="1">
          <mxGeometry width="50" height="50" relative="1" as="geometry">
            <mxPoint x="530" y="150" as="sourcePoint" />
            <mxPoint x="890" y="360" as="targetPoint" />
          </mxGeometry>
        </mxCell>
        <mxCell id="8WXVSk50cckGpyD9SSUx-55" value="" style="endArrow=none;html=1;rounded=0;entryX=0.5;entryY=1;entryDx=0;entryDy=0;exitX=0.25;exitY=0;exitDx=0;exitDy=0;" parent="1" target="8WXVSk50cckGpyD9SSUx-53" edge="1">
          <mxGeometry width="50" height="50" relative="1" as="geometry">
            <mxPoint x="560" y="150" as="sourcePoint" />
            <mxPoint x="890" y="360" as="targetPoint" />
          </mxGeometry>
        </mxCell>
        <mxCell id="8WXVSk50cckGpyD9SSUx-56" value="" style="endArrow=none;html=1;rounded=0;entryX=0.5;entryY=1;entryDx=0;entryDy=0;exitX=0.75;exitY=0;exitDx=0;exitDy=0;" parent="1" target="8WXVSk50cckGpyD9SSUx-51" edge="1">
          <mxGeometry width="50" height="50" relative="1" as="geometry">
            <mxPoint x="620" y="150" as="sourcePoint" />
            <mxPoint x="890" y="360" as="targetPoint" />
          </mxGeometry>
        </mxCell>
        <mxCell id="8WXVSk50cckGpyD9SSUx-57" value="" style="endArrow=none;html=1;rounded=0;entryX=0.5;entryY=1;entryDx=0;entryDy=0;exitX=1;exitY=0;exitDx=0;exitDy=0;" parent="1" target="8WXVSk50cckGpyD9SSUx-50" edge="1">
          <mxGeometry width="50" height="50" relative="1" as="geometry">
            <mxPoint x="650" y="150" as="sourcePoint" />
            <mxPoint x="890" y="360" as="targetPoint" />
          </mxGeometry>
        </mxCell>
        <mxCell id="8WXVSk50cckGpyD9SSUx-58" value="aÃ±o&lt;br&gt;construc." style="ellipse;whiteSpace=wrap;html=1;" parent="1" vertex="1">
          <mxGeometry x="414" y="525" width="60" height="40" as="geometry" />
        </mxCell>
        <mxCell id="8WXVSk50cckGpyD9SSUx-59" value="superficie" style="ellipse;whiteSpace=wrap;html=1;" parent="1" vertex="1">
          <mxGeometry x="410" y="570" width="60" height="40" as="geometry" />
        </mxCell>
        <mxCell id="8WXVSk50cckGpyD9SSUx-60" value="&lt;u&gt;direcciÃ³n&lt;/u&gt;" style="ellipse;whiteSpace=wrap;html=1;" parent="1" vertex="1">
          <mxGeometry x="470" y="535" width="60" height="40" as="geometry" />
        </mxCell>
        <mxCell id="8WXVSk50cckGpyD9SSUx-62" value="" style="endArrow=none;html=1;rounded=0;entryX=0.5;entryY=1;entryDx=0;entryDy=0;exitX=0.5;exitY=0;exitDx=0;exitDy=0;" parent="1" source="CpcycJVbjW2LDVy4HhYS-5" target="8WXVSk50cckGpyD9SSUx-60" edge="1">
          <mxGeometry width="50" height="50" relative="1" as="geometry">
            <mxPoint x="420" y="590" as="sourcePoint" />
            <mxPoint x="470" y="540" as="targetPoint" />
          </mxGeometry>
        </mxCell>
        <mxCell id="8WXVSk50cckGpyD9SSUx-63" value="" style="endArrow=none;html=1;rounded=0;entryX=0.5;entryY=1;entryDx=0;entryDy=0;exitX=0.5;exitY=0;exitDx=0;exitDy=0;" parent="1" source="CpcycJVbjW2LDVy4HhYS-5" target="8WXVSk50cckGpyD9SSUx-58" edge="1">
          <mxGeometry width="50" height="50" relative="1" as="geometry">
            <mxPoint x="420" y="590" as="sourcePoint" />
            <mxPoint x="470" y="540" as="targetPoint" />
          </mxGeometry>
        </mxCell>
        <mxCell id="8WXVSk50cckGpyD9SSUx-64" value="" style="endArrow=none;html=1;rounded=0;entryX=1;entryY=0.5;entryDx=0;entryDy=0;exitX=0.25;exitY=0;exitDx=0;exitDy=0;" parent="1" source="CpcycJVbjW2LDVy4HhYS-5" target="8WXVSk50cckGpyD9SSUx-59" edge="1">
          <mxGeometry width="50" height="50" relative="1" as="geometry">
            <mxPoint x="420" y="590" as="sourcePoint" />
            <mxPoint x="470" y="540" as="targetPoint" />
          </mxGeometry>
        </mxCell>
        <mxCell id="8WXVSk50cckGpyD9SSUx-65" value="" style="endArrow=none;html=1;rounded=0;entryX=0.5;entryY=1;entryDx=0;entryDy=0;exitX=0;exitY=0.5;exitDx=0;exitDy=0;" parent="1" source="CpcycJVbjW2LDVy4HhYS-19" target="CpcycJVbjW2LDVy4HhYS-5" edge="1">
          <mxGeometry width="50" height="50" relative="1" as="geometry">
            <mxPoint x="420" y="760" as="sourcePoint" />
            <mxPoint x="470" y="710" as="targetPoint" />
          </mxGeometry>
        </mxCell>
        <mxCell id="8WXVSk50cckGpyD9SSUx-66" value="Alquiler" style="rounded=0;whiteSpace=wrap;html=1;" parent="1" vertex="1">
          <mxGeometry x="390" y="770" width="120" height="60" as="geometry" />
        </mxCell>
        <mxCell id="8WXVSk50cckGpyD9SSUx-67" value="Venta" style="rounded=0;whiteSpace=wrap;html=1;" parent="1" vertex="1">
          <mxGeometry x="570" y="770" width="120" height="60" as="geometry" />
        </mxCell>
        <mxCell id="8WXVSk50cckGpyD9SSUx-70" style="rounded=0;orthogonalLoop=1;jettySize=auto;html=1;exitX=0;exitY=0.5;exitDx=0;exitDy=0;entryX=1;entryY=0.5;entryDx=0;entryDy=0;endArrow=none;endFill=0;" parent="1" target="8WXVSk50cckGpyD9SSUx-72" edge="1">
          <mxGeometry relative="1" as="geometry">
            <mxPoint x="390" y="796" as="sourcePoint" />
          </mxGeometry>
        </mxCell>
        <mxCell id="8WXVSk50cckGpyD9SSUx-71" style="rounded=0;orthogonalLoop=1;jettySize=auto;html=1;exitX=0;exitY=0.5;exitDx=0;exitDy=0;entryX=0.5;entryY=0;entryDx=0;entryDy=0;endArrow=none;endFill=0;" parent="1" target="8WXVSk50cckGpyD9SSUx-73" edge="1">
          <mxGeometry relative="1" as="geometry">
            <mxPoint x="390" y="796" as="sourcePoint" />
          </mxGeometry>
        </mxCell>
        <mxCell id="8WXVSk50cckGpyD9SSUx-72" value="muebles" style="ellipse;whiteSpace=wrap;html=1;" parent="1" vertex="1">
          <mxGeometry x="313" y="790" width="60" height="40" as="geometry" />
        </mxCell>
        <mxCell id="8WXVSk50cckGpyD9SSUx-73" value="precio&lt;br&gt;mensual" style="ellipse;whiteSpace=wrap;html=1;" parent="1" vertex="1">
          <mxGeometry x="314" y="750" width="59" height="40" as="geometry" />
        </mxCell>
        <mxCell id="8WXVSk50cckGpyD9SSUx-74" value="hipoteca" style="ellipse;whiteSpace=wrap;html=1;" parent="1" vertex="1">
          <mxGeometry x="700" y="800" width="60" height="40" as="geometry" />
        </mxCell>
        <mxCell id="8WXVSk50cckGpyD9SSUx-75" value="precio" style="ellipse;whiteSpace=wrap;html=1;" parent="1" vertex="1">
          <mxGeometry x="700" y="760" width="59" height="40" as="geometry" />
        </mxCell>
        <mxCell id="8WXVSk50cckGpyD9SSUx-76" value="" style="endArrow=none;html=1;rounded=0;entryX=0;entryY=0.5;entryDx=0;entryDy=0;exitX=1;exitY=0.5;exitDx=0;exitDy=0;" parent="1" source="8WXVSk50cckGpyD9SSUx-67" target="8WXVSk50cckGpyD9SSUx-75" edge="1">
          <mxGeometry width="50" height="50" relative="1" as="geometry">
            <mxPoint x="420" y="840" as="sourcePoint" />
            <mxPoint x="470" y="790" as="targetPoint" />
          </mxGeometry>
        </mxCell>
        <mxCell id="8WXVSk50cckGpyD9SSUx-77" value="" style="endArrow=none;html=1;rounded=0;entryX=0;entryY=0.5;entryDx=0;entryDy=0;exitX=1;exitY=0.5;exitDx=0;exitDy=0;" parent="1" source="8WXVSk50cckGpyD9SSUx-67" target="8WXVSk50cckGpyD9SSUx-74" edge="1">
          <mxGeometry width="50" height="50" relative="1" as="geometry">
            <mxPoint x="420" y="840" as="sourcePoint" />
            <mxPoint x="470" y="790" as="targetPoint" />
          </mxGeometry>
        </mxCell>
        <mxCell id="8WXVSk50cckGpyD9SSUx-79" value="fecha" style="ellipse;whiteSpace=wrap;html=1;" parent="1" vertex="1">
          <mxGeometry x="640" y="310" width="60" height="40" as="geometry" />
        </mxCell>
        <mxCell id="8WXVSk50cckGpyD9SSUx-80" value="" style="endArrow=none;html=1;rounded=0;entryX=1;entryY=0.5;entryDx=0;entryDy=0;exitX=0;exitY=0.5;exitDx=0;exitDy=0;" parent="1" source="8WXVSk50cckGpyD9SSUx-79" target="JyWuDK0ZB9Rh1Qg9aJKR-12" edge="1">
          <mxGeometry width="50" height="50" relative="1" as="geometry">
            <mxPoint x="410" y="470" as="sourcePoint" />
            <mxPoint x="460" y="420" as="targetPoint" />
          </mxGeometry>
        </mxCell>
        <mxCell id="8WXVSk50cckGpyD9SSUx-83" value="nombre" style="ellipse;whiteSpace=wrap;html=1;" parent="1" vertex="1">
          <mxGeometry x="420" y="230" width="60" height="40" as="geometry" />
        </mxCell>
        <mxCell id="8WXVSk50cckGpyD9SSUx-84" value="&lt;u&gt;email&lt;/u&gt;" style="ellipse;whiteSpace=wrap;html=1;" parent="1" vertex="1">
          <mxGeometry x="351" y="250" width="46" height="30" as="geometry" />
        </mxCell>
        <mxCell id="8WXVSk50cckGpyD9SSUx-85" value="&lt;u&gt;direcciÃ³n&lt;/u&gt;" style="ellipse;whiteSpace=wrap;html=1;" parent="1" vertex="1">
          <mxGeometry x="262" y="238" width="60" height="40" as="geometry" />
        </mxCell>
        <mxCell id="8WXVSk50cckGpyD9SSUx-86" value="" style="endArrow=none;html=1;rounded=0;entryX=0.5;entryY=1;entryDx=0;entryDy=0;exitX=0.25;exitY=0;exitDx=0;exitDy=0;" parent="1" source="JyWuDK0ZB9Rh1Qg9aJKR-9" target="8WXVSk50cckGpyD9SSUx-85" edge="1">
          <mxGeometry width="50" height="50" relative="1" as="geometry">
            <mxPoint x="420" y="340" as="sourcePoint" />
            <mxPoint x="470" y="290" as="targetPoint" />
          </mxGeometry>
        </mxCell>
        <mxCell id="8WXVSk50cckGpyD9SSUx-87" value="" style="endArrow=none;html=1;rounded=0;entryX=0.5;entryY=1;entryDx=0;entryDy=0;exitX=0.5;exitY=0;exitDx=0;exitDy=0;" parent="1" source="JyWuDK0ZB9Rh1Qg9aJKR-9" target="8WXVSk50cckGpyD9SSUx-84" edge="1">
          <mxGeometry width="50" height="50" relative="1" as="geometry">
            <mxPoint x="420" y="340" as="sourcePoint" />
            <mxPoint x="470" y="290" as="targetPoint" />
          </mxGeometry>
        </mxCell>
        <mxCell id="8WXVSk50cckGpyD9SSUx-88" value="" style="endArrow=none;html=1;rounded=0;entryX=0.5;entryY=1;entryDx=0;entryDy=0;exitX=0.75;exitY=0;exitDx=0;exitDy=0;" parent="1" source="JyWuDK0ZB9Rh1Qg9aJKR-9" target="8WXVSk50cckGpyD9SSUx-83" edge="1">
          <mxGeometry width="50" height="50" relative="1" as="geometry">
            <mxPoint x="420" y="340" as="sourcePoint" />
            <mxPoint x="470" y="290" as="targetPoint" />
          </mxGeometry>
        </mxCell>
        <mxCell id="8WXVSk50cckGpyD9SSUx-89" value="" style="endArrow=classic;html=1;rounded=0;edgeStyle=orthogonalEdgeStyle;curved=1;" parent="1" edge="1">
          <mxGeometry width="50" height="50" relative="1" as="geometry">
            <mxPoint x="513" y="330" as="sourcePoint" />
            <mxPoint x="263" y="330" as="targetPoint" />
            <Array as="points">
              <mxPoint x="513" y="280" />
              <mxPoint x="264" y="280" />
              <mxPoint x="264" y="330" />
            </Array>
          </mxGeometry>
        </mxCell>
        <mxCell id="8WXVSk50cckGpyD9SSUx-90" value="(1,N)" style="text;html=1;align=center;verticalAlign=middle;resizable=0;points=[];autosize=1;strokeColor=none;fillColor=none;" parent="1" vertex="1">
          <mxGeometry x="224" y="141" width="50" height="30" as="geometry" />
        </mxCell>
        <mxCell id="8WXVSk50cckGpyD9SSUx-91" value="(1,1)" style="text;html=1;align=center;verticalAlign=middle;resizable=0;points=[];autosize=1;strokeColor=none;fillColor=none;" parent="1" vertex="1">
          <mxGeometry x="65" y="138" width="50" height="30" as="geometry" />
        </mxCell>
        <mxCell id="8WXVSk50cckGpyD9SSUx-92" value="1:N" style="text;html=1;align=center;verticalAlign=middle;resizable=0;points=[];autosize=1;strokeColor=none;fillColor=none;" parent="1" vertex="1">
          <mxGeometry x="150" y="-12" width="40" height="30" as="geometry" />
        </mxCell>
        <mxCell id="rYp_d394fgbpMM7pf4TZ-1" value="(0,1)" style="text;html=1;align=center;verticalAlign=middle;resizable=0;points=[];autosize=1;strokeColor=none;fillColor=none;" vertex="1" parent="1">
          <mxGeometry x="440" y="745" width="50" height="30" as="geometry" />
        </mxCell>
        <mxCell id="rYp_d394fgbpMM7pf4TZ-2" value="(0,1)" style="text;html=1;align=center;verticalAlign=middle;resizable=0;points=[];autosize=1;strokeColor=none;fillColor=none;" vertex="1" parent="1">
          <mxGeometry x="589" y="745" width="50" height="30" as="geometry" />
        </mxCell>
        <mxCell id="rYp_d394fgbpMM7pf4TZ-3" value="(1,1)" style="text;html=1;align=center;verticalAlign=middle;resizable=0;points=[];autosize=1;strokeColor=none;fillColor=none;" vertex="1" parent="1">
          <mxGeometry x="530" y="654" width="50" height="30" as="geometry" />
        </mxCell>
        <mxCell id="rYp_d394fgbpMM7pf4TZ-4" value="tipo" style="ellipse;whiteSpace=wrap;html=1;" vertex="1" parent="1">
          <mxGeometry x="613" y="678" width="60" height="40" as="geometry" />
        </mxCell>
        <mxCell id="rYp_d394fgbpMM7pf4TZ-5" value="" style="endArrow=none;html=1;rounded=0;entryX=0.138;entryY=0.043;entryDx=0;entryDy=0;entryPerimeter=0;exitX=0;exitY=0.5;exitDx=0;exitDy=0;" edge="1" parent="1">
          <mxGeometry width="50" height="50" relative="1" as="geometry">
            <mxPoint x="613" y="698" as="sourcePoint" />
            <mxPoint x="574.56" y="698.2799999999997" as="targetPoint" />
          </mxGeometry>
        </mxCell>
      </root>
    </mxGraphModel>
  </diagram>
</mxfile>
